<svg xmlns="http://www.w3.org/2000/svg" version="1.1" xmlns:xlink="http://www.w3.org/1999/xlink" xmlns:svgjs="http://svgjs.dev/svgjs" viewBox="0 0 800 800">
  <defs>
    <filter id="bbburst-blur-1" x="-100%" y="-100%" width="400%" height="400%">
      <feGaussianBlur in="SourceGraphic" stdDeviation="1"></feGaussianBlur>
    </filter>
    <filter id="bbburst-blur-2" x="-100%" y="-100%" width="400%" height="400%">
      <feGaussianBlur in="SourceGraphic" stdDeviation="2"></feGaussianBlur>
    </filter>
    <filter id="bbburst-blur-3" x="-100%" y="-100%" width="400%" height="400%">
      <feGaussianBlur in="SourceGraphic" stdDeviation="4"></feGaussianBlur>
    </filter>
    <filter id="bbburst-blur-4" x="-100%" y="-100%" width="400%" height="400%">
      <feGaussianBlur in="SourceGraphic" stdDeviation="12"></feGaussianBlur>
    </filter>
    <symbol id="bbburst-shape-1" viewBox="0 0 194 167">
      <path d="m97 0 96.129 166.5H.871L97 0Z"></path>
    </symbol>
    <symbol id="bbburst-shape-4" viewBox="0 0 149 143">
      <path d="M71.647 2.781c.898-2.764 4.808-2.764 5.706 0l15.445 47.534a3 3 0 0 0 2.853 2.073h49.98c2.906 0 4.115 3.719 1.764 5.427L106.96 87.193a2.999 2.999 0 0 0-1.09 3.354l15.445 47.534c.898 2.764-2.266 5.062-4.617 3.354l-40.435-29.378a3 3 0 0 0-3.526 0l-40.435 29.378c-2.351 1.708-5.515-.59-4.617-3.354L43.13 90.547a3 3 0 0 0-1.09-3.354L1.605 57.815c-2.35-1.708-1.142-5.427 1.764-5.427h49.98a3 3 0 0 0 2.853-2.073L71.647 2.781Z"></path>
    </symbol>
    <symbol id="bbburst-shape-6" viewBox="0 0 133 116">
      <path d="M59.7487 10.2513c-13.6683-13.66839-35.8291-13.66839-49.4974 0-13.66839 13.6683-13.66839 35.8291 0 49.4974l49.4974-49.4974ZM66.5 66.5 41.7513 91.2487 66.5 115.997l24.7487-24.7483L66.5 66.5Zm56.249-6.7513c13.668-13.6683 13.668-35.8291 0-49.4974-13.669-13.66839-35.8294-13.66839-49.4977 0l49.4977 49.4974Zm-112.4977 0 31.5 31.5 49.4974-49.4974-31.5-31.5-49.4974 49.4974Zm80.9974 31.5 31.5003-31.5-49.4977-49.4974-31.5 31.5 49.4974 49.4974Z"></path>
    </symbol>
    <symbol id="bbburst-shape-8" viewBox="0 0 87 168">
      <path d="m12 12 31.2546 18.0749c16.4102 9.4902 20.014 31.6325 7.4603 45.8369L36.3296 92.1884c-12.5684 14.2206-8.9394 36.3916 7.5068 45.8636L75 156" stroke-width="14" stroke-linecap="round" stroke-linejoin="round"></path>
    </symbol>
    <symbol id="bbburst-shape-10" viewBox="0 0 145 145">
      <circle cx="72.5" cy="72.5" r="61.5" fill="none" stroke-width="22"></circle>
    </symbol>
  </defs>
  <use xlink:href="#bbburst-shape-8" width="20.049894036984725" opacity="0.7657401420908493" transform="matrix(0.8188668702734794,0.5739834917212486,-0.5739834917212486,0.8188668702734794,685.5251726855622,150.3572003310013)" fill="none" stroke="#ff5c58" filter="url(#bbburst-blur-1)"></use>
  <use xlink:href="#bbburst-shape-6" width="29.26445713349692" opacity="0.39909922166106915" transform="matrix(0.9162218617173695,0.40067131181450644,-0.40067131181450644,0.9162218617173695,535.5345666528953,297.8168295322505)" fill="#00a19d" filter="url(#bbburst-blur-2)"></use>
  <use xlink:href="#bbburst-shape-4" width="40.46807297073878" opacity="0.10852407496986383" transform="matrix(1.6562886836556336,0.5649847753650435,-0.5649847753650435,1.6562886836556336,917.1246343814919,-38.248483350328684)" fill="#00a19d" filter="url(#bbburst-blur-4)"></use>
  <use xlink:href="#bbburst-shape-6" width="44.958694949051534" opacity="0.28301197072727935" transform="matrix(1.1681848927436567,-0.4447966460816575,0.4447966460816575,1.1681848927436567,367.61340839405165,-330.3810125490677)" fill="#ffa6d5" filter="url(#bbburst-blur-3)"></use>
  <use xlink:href="#bbburst-shape-1" width="18.097592413946607" opacity="0.8543056824759458" transform="matrix(0.7485687254673827,0.6630572096374024,-0.6630572096374024,0.7485687254673827,723.5514831159257,86.96656843681166)" fill="#2c2891"></use>
  <use xlink:href="#bbburst-shape-10" width="23.685161075554888" opacity="0.6928995087811356" transform="matrix(0.7416675168688751,-0.6707676903530438,0.6707676903530438,0.7416675168688751,44.58201183491764,-2.577226514335564)" fill="none" stroke="#ffa6d5" filter="url(#bbburst-blur-1)"></use>
  <use xlink:href="#bbburst-shape-4" width="19.085561252543336" opacity="0.7907193429531025" transform="matrix(0.893046846113794,0.44996369925384594,-0.44996369925384594,0.893046846113794,504.91615860687085,-28.14320871828295)" fill="#00a19d"></use>
  <use xlink:href="#bbburst-shape-10" width="25.659978404391968" opacity="0.670168818248146" transform="matrix(0.9115702126710384,0.4111444361424313,-0.4111444361424313,0.9115702126710384,684.2100581652894,-38.83192766608761)" fill="none" stroke="#ffa6d5" filter="url(#bbburst-blur-1)"></use>
  <use xlink:href="#bbburst-shape-8" width="31.893727928596626" opacity="-0.08631230127364908" transform="matrix(1.7328902739522067,0.24411329017865008,-0.24411329017865008,1.7328902739522067,822.832692720997,41.30301010612152)" fill="none" stroke="#ffbd9b" filter="url(#bbburst-blur-4)"></use>
  <use xlink:href="#bbburst-shape-4" width="14.695845754247706" opacity="0.8818642334422414" transform="matrix(0.9645523678690946,-0.263891511114175,0.263891511114175,0.9645523678690946,249.1938845301433,-20.875662846263708)" fill="#ffa6d5"></use>
  <use xlink:href="#bbburst-shape-4" width="33.799207160164634" opacity="0.1400428671329822" transform="matrix(1.0872956596585035,-0.6166750752931238,0.6166750752931238,1.0872956596585035,496.5468285777406,113.44660039504197)" fill="#2c2891" filter="url(#bbburst-blur-3)"></use>
  <use xlink:href="#bbburst-shape-4" width="11.283318866949466" opacity="0.9004953272479843" transform="matrix(0.8875326078857412,-0.4607449076653319,0.4607449076653319,0.8875326078857412,235.24988668714244,85.04233450522202)" fill="#00a19d"></use>
  <use xlink:href="#bbburst-shape-6" width="40.9437123264446" opacity="0.3696238039687555" transform="matrix(0.9455546367214469,-0.32546340650612715,0.32546340650612715,0.9455546367214469,-33.13813603993394,34.90370071126955)" fill="#ffbd9b" filter="url(#bbburst-blur-2)"></use>
  <use xlink:href="#bbburst-shape-6" width="33.06030105670763" opacity="0.09903542653415542" transform="matrix(1.4751562040418564,0.9414957109179102,-0.9414957109179102,1.4751562040418564,1111.2437042289735,-393.97044801358635)" fill="#2c2891" filter="url(#bbburst-blur-4)"></use>
  <use xlink:href="#bbburst-shape-4" width="37.166563566578276" opacity="0.3792146778376111" transform="matrix(0.8699539787970224,0.4931329179594786,-0.4931329179594786,0.8699539787970224,359.68405765911126,-127.48837759063397)" fill="#00a19d" filter="url(#bbburst-blur-2)"></use>
  <use xlink:href="#bbburst-shape-1" width="36.778277000283055" opacity="0.3233620662209329" transform="matrix(1.2487873124782716,0.0550476901722108,-0.0550476901722108,1.2487873124782716,313.0032356604024,191.6071915157977)" fill="#ffa6d5" filter="url(#bbburst-blur-3)"></use>
  <use xlink:href="#bbburst-shape-6" width="47.1002906438445" opacity="0.08490887192448937" transform="matrix(1.5605559376148468,-0.7919376020716825,0.7919376020716825,1.5605559376148468,-308.0140751220851,3.975838676882745)" fill="#ff5c58" filter="url(#bbburst-blur-4)"></use>
  <use xlink:href="#bbburst-shape-10" width="37.10673174219011" opacity="0.15331795974651852" transform="matrix(1.2059976832703077,0.32873939214315473,-0.32873939214315473,1.2059976832703077,636.4429169742715,270.60512556275955)" fill="none" stroke="#ffa6d5" filter="url(#bbburst-blur-3)"></use>
  <use xlink:href="#bbburst-shape-10" width="18.35571884338667" opacity="0.8019490296202114" transform="matrix(0.7468637193737356,-0.6649771309475461,0.6649771309475461,0.7468637193737356,42.023962085036715,80.98179348346298)" fill="none" stroke="#00a19d"></use>
  <use xlink:href="#bbburst-shape-8" width="9.484759560172801" opacity="0.9100932926911934" transform="matrix(0.9680632724287321,-0.25070600426510403,0.25070600426510403,0.9680632724287321,255.50171888506043,5.795760806475755)" fill="none" stroke="#ffbd9b"></use>
  <use xlink:href="#bbburst-shape-6" width="26.42322203856353" opacity="0.3339876102346069" transform="matrix(0.8763618732333286,-0.4816532644371584,0.4816532644371584,0.8763618732333286,189.48399117598902,-243.8209266246489)" fill="#ffbd9b" filter="url(#bbburst-blur-2)"></use>
  <use xlink:href="#bbburst-shape-1" width="32.488965022928866" opacity="0.35012472765482583" transform="matrix(0.8641735893225322,-0.503193807113533,0.503193807113533,0.8641735893225322,405.7624908508975,254.00162183853348)" fill="#ffa6d5" filter="url(#bbburst-blur-2)"></use>
  <use xlink:href="#bbburst-shape-8" width="26.3935567407988" opacity="0.18666946572546494" transform="matrix(1.2311858685605532,0.21605868891760915,-0.21605868891760915,1.2311858685605532,833.0379729782555,-143.1387458187175)" fill="none" stroke="#2c2891" filter="url(#bbburst-blur-3)"></use>
  <use xlink:href="#bbburst-shape-1" width="35.10868707723103" opacity="0.42492874974593353" transform="matrix(0.9874568469662222,-0.15788912368978064,0.15788912368978064,0.9874568469662222,73.12564131890906,-71.2821062563213)" fill="#00a19d" filter="url(#bbburst-blur-2)"></use>
  <use xlink:href="#bbburst-shape-10" width="13.466303890492242" opacity="0.8291845176434255" transform="matrix(0.7900752610016434,0.613009854695,-0.613009854695,0.7900752610016434,564.1883933723407,93.20909823595167)" fill="none" stroke="#2c2891"></use>
  <use xlink:href="#bbburst-shape-4" width="13.468386247244688" opacity="0.8076282758307264" transform="matrix(0.803315050920629,-0.5955543039592504,0.5955543039592504,0.803315050920629,139.92654605701102,167.68447009884602)" fill="#2c2891"></use>
  <use xlink:href="#bbburst-shape-10" width="30.783281432523914" opacity="0.43769295067694725" transform="matrix(0.9159085597576678,0.4013869830508141,-0.4013869830508141,0.9159085597576678,622.1737012037255,-213.98576452127824)" fill="none" stroke="#ffbd9b" filter="url(#bbburst-blur-2)"></use>
  <use xlink:href="#bbburst-shape-4" width="25.272768159489726" opacity="0.6768289570849821" transform="matrix(0.9874169590001424,-0.15813838584894935,0.15813838584894935,0.9874169590001424,274.1179380001615,143.5594559564023)" fill="#ffbd9b" filter="url(#bbburst-blur-1)"></use>
  <use xlink:href="#bbburst-shape-6" width="25.757537703497505" opacity="0.7042191122442323" transform="matrix(0.9849951969030615,-0.17258175476538393,0.17258175476538393,0.9849951969030615,432.0476146090788,77.31414340115691)" fill="#ffa6d5" filter="url(#bbburst-blur-1)"></use>
  <use xlink:href="#bbburst-shape-8" width="26.843298013404723" opacity="0.4389431486720943" transform="matrix(0.8119335316440267,-0.583749895239441,0.583749895239441,0.8119335316440267,278.9579356264529,303.3507610501636)" fill="none" stroke="#2c2891" filter="url(#bbburst-blur-2)"></use>
  <use xlink:href="#bbburst-shape-10" width="44.32714198203747" opacity="0.053915388975521616" transform="matrix(1.6308049152776838,0.6348033776738641,-0.6348033776738641,1.6308049152776838,379.16301484002486,86.19371827047587)" fill="none" stroke="#00a19d" filter="url(#bbburst-blur-4)"></use>
  <use xlink:href="#bbburst-shape-6" width="17.69957903064107" opacity="0.6494092486158034" transform="matrix(0.9910258887271156,-0.13367007096815117,0.13367007096815117,0.9910258887271156,396.0166249506169,151.3893479170605)" fill="#2c2891" filter="url(#bbburst-blur-1)"></use>
  <use xlink:href="#bbburst-shape-6" width="38.12015270286052" opacity="0.33926555457711904" transform="matrix(0.8248297327489865,-0.5653812094270869,0.5653812094270869,0.8248297327489865,396.0124006426306,-97.5248406276732)" fill="#ffbd9b" filter="url(#bbburst-blur-2)"></use>
  <use xlink:href="#bbburst-shape-6" width="41.01700336864164" opacity="0.1931588218112974" transform="matrix(1.218641746982735,0.27823064624672045,-0.27823064624672045,1.218641746982735,123.62580770225755,-110.3006956325039)" fill="#ffa6d5" filter="url(#bbburst-blur-3)"></use>
  <use xlink:href="#bbburst-shape-6" width="47.59521605738597" opacity="-0.07089355130579422" transform="matrix(1.6900340350178926,0.4541860417066337,-0.4541860417066337,1.6900340350178926,199.2464854268809,-626.1185790008386)" fill="#2c2891" filter="url(#bbburst-blur-4)"></use>
  <use xlink:href="#bbburst-shape-6" width="32.03107742681192" opacity="0.5669781674995249" transform="matrix(0.7499509178474361,0.6614934775338214,-0.6614934775338214,0.7499509178474361,476.0167405605288,7.002725590835439)" fill="#ffa6d5" filter="url(#bbburst-blur-1)"></use>
  <use xlink:href="#bbburst-shape-1" width="24.312585283446058" opacity="0.6154927489698904" transform="matrix(0.9029155733893042,0.4298179467298499,-0.4298179467298499,0.9029155733893042,570.6312947274756,-139.11945126617664)" fill="#00a19d" filter="url(#bbburst-blur-1)"></use>
  <use xlink:href="#bbburst-shape-1" width="14.271560034579803" opacity="0.9669547842707955" transform="matrix(0.9499661564482921,-0.31235284791859846,0.31235284791859846,0.9499661564482921,266.17466435964053,7.54017092122632)" fill="#00a19d"></use>
  <use xlink:href="#bbburst-shape-8" width="40.39688131998114" opacity="0.2479113329412017" transform="matrix(1.2380956546051245,0.17210215003859752,-0.17210215003859752,1.2380956546051245,638.8168143256175,177.9134051261663)" fill="none" stroke="#ffbd9b" filter="url(#bbburst-blur-3)"></use>
  <use xlink:href="#bbburst-shape-10" width="22.905124168799688" opacity="0.7217513683337503" transform="matrix(0.8819035287293192,0.4714299163340982,-0.4714299163340982,0.8819035287293192,655.6535143911137,-56.75570832405873)" fill="none" stroke="#00a19d" filter="url(#bbburst-blur-1)"></use>
  <use xlink:href="#bbburst-shape-1" width="15.6545869140435" opacity="0.8913287496180973" transform="matrix(0.9495092551490038,0.31373902273447624,-0.31373902273447624,0.9495092551490038,509.01186058588365,65.81795565268442)" fill="#ffbd9b"></use>
  <use xlink:href="#bbburst-shape-6" width="31.622182576563276" opacity="0.4888319161868291" transform="matrix(0.770929733326389,-0.6369202040077727,0.6369202040077727,0.770929733326389,109.50374604135914,-127.11926866005248)" fill="#00a19d" filter="url(#bbburst-blur-2)"></use>
  <use xlink:href="#bbburst-shape-4" width="21.258549786753115" opacity="0.6004736903196077" transform="matrix(0.9903281417463485,-0.13874498789226322,0.13874498789226322,0.9903281417463485,271.9033808283183,-163.36800599950698)" fill="#ff5c58" filter="url(#bbburst-blur-1)"></use>
  <use xlink:href="#bbburst-shape-10" width="15.841097833529329" opacity="0.8120124880986647" transform="matrix(0.885320308799376,-0.46498166719493095,0.46498166719493095,0.885320308799376,213.8642043901634,-34.76024551019657)" fill="none" stroke="#ff5c58"></use>
  <use xlink:href="#bbburst-shape-8" width="25.634488936347225" opacity="0.5226018260685312" transform="matrix(0.9466583839285807,0.32223889296254726,-0.32223889296254726,0.9466583839285807,562.6031196771498,227.08774782388065)" fill="none" stroke="#00a19d" filter="url(#bbburst-blur-2)"></use>
  <use xlink:href="#bbburst-shape-4" width="33.221777475933116" opacity="0.14729013549569292" transform="matrix(0.9431167477782776,0.8203845440158687,-0.8203845440158687,0.9431167477782776,836.6998495809333,-353.8963204913889)" fill="#00a19d" filter="url(#bbburst-blur-3)"></use>
  <use xlink:href="#bbburst-shape-6" width="13.689255596489577" opacity="0.9306777415256602" transform="matrix(0.9749512243475003,0.2224187720119644,-0.2224187720119644,0.9749512243475003,513.0589164085633,13.661181388006298)" fill="#00a19d"></use>
  <use xlink:href="#bbburst-shape-10" width="39.25634809146345" opacity="0.27473291169723757" transform="matrix(1.227706141529277,-0.23502687091329574,0.23502687091329574,1.227706141529277,97.59547021691898,-355.82487502962096)" fill="none" stroke="#00a19d" filter="url(#bbburst-blur-3)"></use>
  <use xlink:href="#bbburst-shape-6" width="15.900143698026937" opacity="0.7513813429606365" transform="matrix(0.9964770646505052,-0.08386572378220293,0.08386572378220293,0.9964770646505052,263.86893125598834,61.706096426062516)" fill="#00a19d" filter="url(#bbburst-blur-1)"></use>
  <use xlink:href="#bbburst-shape-4" width="17.42221079160295" opacity="0.7992003458062902" transform="matrix(0.7730800815335737,-0.6343084324964023,0.6343084324964023,0.7730800815335737,215.3323014935923,47.08900094491389)" fill="#2c2891"></use>
  <use xlink:href="#bbburst-shape-4" width="45.0195561574716" opacity="0.057077902257398505" transform="matrix(1.582994046752915,0.7460763016909394,-0.7460763016909394,1.582994046752915,897.7823104621975,-603.2130116726493)" fill="#00a19d" filter="url(#bbburst-blur-4)"></use>
  <use xlink:href="#bbburst-shape-8" width="30.61816437452343" opacity="0.5910321692692626" transform="matrix(0.9676983172229757,0.25211102086942,-0.25211102086942,0.9676983172229757,559.3599209326901,-159.73397305878598)" fill="none" stroke="#00a19d" filter="url(#bbburst-blur-1)"></use>
  <use xlink:href="#bbburst-shape-8" width="45.28623275716581" opacity="-0.0801412152023715" transform="matrix(1.7486748088614532,-0.06809120980978449,0.06809120980978449,1.7486748088614532,683.4774465648991,-634.8867747695385)" fill="none" stroke="#ff5c58" filter="url(#bbburst-blur-4)"></use>
  <use xlink:href="#bbburst-shape-10" width="15.137852350565405" opacity="0.8312074710914878" transform="matrix(0.9714421947575722,0.23727634151889457,-0.23727634151889457,0.9714421947575722,513.7667124177678,80.91884793324414)" fill="none" stroke="#00a19d"></use>
  <use xlink:href="#bbburst-shape-4" width="30.08962796629675" opacity="0.25035608890573335" transform="matrix(1.2488651916896485,0.05325160078323634,-0.05325160078323634,1.2488651916896485,737.2982699913076,-58.89979737509253)" fill="#ffa6d5" filter="url(#bbburst-blur-3)"></use>
  <use xlink:href="#bbburst-shape-4" width="42.96093399065941" opacity="0.17180850480818743" transform="matrix(1.0711950438032627,0.6442368959717583,-0.6442368959717583,1.0711950438032627,356.5507917519519,-290.3682282352377)" fill="#ffa6d5" filter="url(#bbburst-blur-3)"></use>
  <use xlink:href="#bbburst-shape-6" width="30.7055342497843" opacity="0.5229569474696869" transform="matrix(0.9947410174556732,-0.10242220555744784,0.10242220555744784,0.9947410174556732,493.19812026780227,157.78977866403437)" fill="#ffa6d5" filter="url(#bbburst-blur-2)"></use>
  <use xlink:href="#bbburst-shape-6" width="43.94701840049731" opacity="0.14900036879916423" transform="matrix(1.1108892416329512,-0.5730838444976147,0.5730838444976147,1.1108892416329512,430.8461380940096,-288.11437956555346)" fill="#ffa6d5" filter="url(#bbburst-blur-3)"></use>
  <use xlink:href="#bbburst-shape-4" width="22.508666968702034" opacity="0.642582452675158" transform="matrix(0.9966175047276288,0.08217998095932448,-0.08217998095932448,0.9966175047276288,523.4672742135214,124.95907408281994)" fill="#00a19d" filter="url(#bbburst-blur-1)"></use>
  <use xlink:href="#bbburst-shape-4" width="30.05019843074251" opacity="0.47650447119956163" transform="matrix(0.9428056051526689,0.33334305286402754,-0.33334305286402754,0.9428056051526689,750.2195060461968,63.79938376368602)" fill="#ff5c58" filter="url(#bbburst-blur-2)"></use>
  <use xlink:href="#bbburst-shape-10" width="44.325324928637876" opacity="0.04375298007579764" transform="matrix(1.2976755216181872,-1.1741116814822028,1.1741116814822028,1.2976755216181872,150.85231405632317,257.7199213355973)" fill="none" stroke="#00a19d" filter="url(#bbburst-blur-4)"></use>
  <use xlink:href="#bbburst-shape-10" width="11.592734233553813" opacity="0.8517342058454191" transform="matrix(0.9918530870391838,-0.12738702340050623,0.12738702340050623,0.9918530870391838,294.96780184566705,49.995897124767)" fill="none" stroke="#ffbd9b"></use>
  <use xlink:href="#bbburst-shape-10" width="29.84295785376809" opacity="0.2444262426073811" transform="matrix(1.0901013343186812,-0.6117017908398101,0.6117017908398101,1.0901013343186812,195.0117092602204,-362.28480498240424)" fill="none" stroke="#00a19d" filter="url(#bbburst-blur-3)"></use>
  <use xlink:href="#bbburst-shape-10" width="26.97744899021933" opacity="0.64803649285641" transform="matrix(0.8449636986634186,0.5348236606032268,-0.5348236606032268,0.8449636986634186,758.0286003414483,84.90303775251647)" fill="none" stroke="#ffa6d5" filter="url(#bbburst-blur-1)"></use>
  <use xlink:href="#bbburst-shape-4" width="15.418264453388913" opacity="0.7719104152355265" transform="matrix(0.7687361100626919,-0.6395660975111804,0.6395660975111804,0.7687361100626919,81.89320044182983,183.22706477627725)" fill="#2c2891" filter="url(#bbburst-blur-1)"></use>
  <use xlink:href="#bbburst-shape-4" width="15.72176055682709" opacity="0.7747799892858618" transform="matrix(0.9989794269293952,-0.04516751677718375,0.04516751677718375,0.9989794269293952,473.3267990305224,21.31628255234972)" fill="#2c2891" filter="url(#bbburst-blur-1)"></use>
  <use xlink:href="#bbburst-shape-1" width="34.15186244413007" opacity="0.32037175946760155" transform="matrix(1.1077084176749323,-0.5792081330679825,0.5792081330679825,1.1077084176749323,-108.55875839053087,131.10255856172193)" fill="#ffbd9b" filter="url(#bbburst-blur-3)"></use>
  <use xlink:href="#bbburst-shape-10" width="28.162043393414717" opacity="0.610869208518623" transform="matrix(0.999999916354392,-0.0004090124801888327,0.0004090124801888327,0.999999916354392,226.15231954644094,72.04723755934367)" fill="none" stroke="#00a19d" filter="url(#bbburst-blur-1)"></use>
  <use xlink:href="#bbburst-shape-8" width="26.142059305115204" opacity="0.6030322778211001" transform="matrix(0.9174534640891231,0.39784311132765415,-0.39784311132765415,0.9174534640891231,674.5501784321831,-97.39581053741568)" fill="none" stroke="#2c2891" filter="url(#bbburst-blur-1)"></use>
  <use xlink:href="#bbburst-shape-4" width="28.617574532815333" opacity="0.5575263036836267" transform="matrix(0.9971648689700943,-0.0752477514072991,0.0752477514072991,0.9971648689700943,216.23712659615433,-139.9407044119073)" fill="#ffbd9b" filter="url(#bbburst-blur-1)"></use>
  <use xlink:href="#bbburst-shape-10" width="13.057798913580621" opacity="0.8411129135921231" transform="matrix(0.8200150450044054,0.5723419659315775,-0.5723419659315775,0.8200150450044054,684.890634198576,105.04725529625483)" fill="none" stroke="#2c2891"></use>
  <use xlink:href="#bbburst-shape-1" width="37.91601722829587" opacity="0.07785048755737045" transform="matrix(1.3573261562610617,-1.104611110540525,1.104611110540525,1.3573261562610617,-279.3289843545483,-478.764526429351)" fill="#00a19d" filter="url(#bbburst-blur-4)"></use>
  <use xlink:href="#bbburst-shape-1" width="16.2239804740285" opacity="0.900669637806141" transform="matrix(0.828922676210371,-0.5593632065699679,0.5593632065699679,0.828922676210371,203.0355310191261,43.385700455959466)" fill="#ff5c58"></use>
  <use xlink:href="#bbburst-shape-6" width="43.13718760947667" opacity="0.19913679644936733" transform="matrix(1.1623349296518979,-0.45986684084756235,0.45986684084756235,1.1623349296518979,-156.50726476296745,40.536114313344456)" fill="#00a19d" filter="url(#bbburst-blur-3)"></use>
  <use xlink:href="#bbburst-shape-8" width="24.336103296018592" opacity="0.5432962297192823" transform="matrix(0.7940445362047043,-0.6078595845451942,0.6078595845451942,0.7940445362047043,327.92038182605756,187.63138281593302)" fill="none" stroke="#ff5c58" filter="url(#bbburst-blur-2)"></use>
  <use xlink:href="#bbburst-shape-8" width="33.33153755158837" opacity="0.2914409055379146" transform="matrix(1.1980275536108103,0.3566931185056659,-0.3566931185056659,1.1980275536108103,823.0154375519737,-192.3176741166364)" fill="none" stroke="#00a19d" filter="url(#bbburst-blur-3)"></use>
  <use xlink:href="#bbburst-shape-10" width="40.76244781550027" opacity="0.3351838604610883" transform="matrix(0.9999936622708728,0.0035602553402109315,-0.0035602553402109315,0.9999936622708728,653.1912342874971,124.17330631950091)" fill="none" stroke="#2c2891" filter="url(#bbburst-blur-2)"></use>
  <use xlink:href="#bbburst-shape-4" width="23.548394219626363" opacity="0.5073729056986878" transform="matrix(0.9574352022551188,0.2886482868175381,-0.2886482868175381,0.9574352022551188,400.3289397280471,209.49959492713526)" fill="#ff5c58" filter="url(#bbburst-blur-2)"></use>
  <use xlink:href="#bbburst-shape-10" width="32.1364335856323" opacity="0.5979636286548783" transform="matrix(0.9236385199410404,0.383264770727919,-0.383264770727919,0.9236385199410404,717.4806887442519,-1.7673226364334482)" fill="none" stroke="#00a19d" filter="url(#bbburst-blur-1)"></use>
  <use xlink:href="#bbburst-shape-6" width="32.77461332749722" opacity="0.44232994334092435" transform="matrix(0.9553812934642509,0.2953753275048118,-0.2953753275048118,0.9553812934642509,264.6537790775553,93.06209135135674)" fill="#ffa6d5" filter="url(#bbburst-blur-2)"></use>
  <use xlink:href="#bbburst-shape-4" width="29.810238669286306" opacity="0.5361260355648758" transform="matrix(0.9367108796327424,-0.3501038816946394,0.3501038816946394,0.9367108796327424,208.21324681713787,235.85292896997208)" fill="#00a19d" filter="url(#bbburst-blur-2)"></use>
  <use xlink:href="#bbburst-shape-4" width="17.960372489212045" opacity="0.8260008238962517" transform="matrix(0.9999657582282907,0.008275407598394359,-0.008275407598394359,0.9999657582282907,433.631136602841,-67.76626255136006)" fill="#00a19d"></use>
  <use xlink:href="#bbburst-shape-1" width="23.243522876646438" opacity="0.6474119347396107" transform="matrix(0.9748467785564602,0.222876105354728,-0.222876105354728,0.9748467785564602,371.6248177657302,125.39111583536214)" fill="#00a19d" filter="url(#bbburst-blur-1)"></use>
  <use xlink:href="#bbburst-shape-4" width="33.15546527469451" opacity="0.17393270280741557" transform="matrix(1.2388508021427582,-0.16657938056747806,0.16657938056747806,1.2388508021427582,46.81536904551453,166.90539125394093)" fill="#ffa6d5" filter="url(#bbburst-blur-3)"></use>
  <use xlink:href="#bbburst-shape-6" width="21.850505543320303" opacity="0.6465507931859534" transform="matrix(0.999984066880461,0.005644996475957231,-0.005644996475957231,0.999984066880461,392.6472730431989,158.9916566819134)" fill="#ff5c58" filter="url(#bbburst-blur-1)"></use>
  <use xlink:href="#bbburst-shape-4" width="19.175416839330538" opacity="0.7501730455189378" transform="matrix(0.8658465491946512,-0.5003096573600337,0.5003096573600337,0.8658465491946512,205.6872483916818,170.00720736213134)" fill="#ffa6d5" filter="url(#bbburst-blur-1)"></use>
  <use xlink:href="#bbburst-shape-6" width="17.08750601373895" opacity="0.7415673737142241" transform="matrix(0.9600223363482036,-0.2799234068679087,0.2799234068679087,0.9600223363482036,394.29077989738954,-2.180221837839497)" fill="#2c2891" filter="url(#bbburst-blur-1)"></use>
  <use xlink:href="#bbburst-shape-4" width="14.918991959561186" opacity="0.8222092744949911" transform="matrix(0.9368354621499733,0.34977037733096555,-0.34977037733096555,0.9368354621499733,503.4030379320343,-51.694395448334944)" fill="#00a19d"></use>
  <use xlink:href="#bbburst-shape-10" width="31.690114796850565" opacity="0.45798116317530835" transform="matrix(0.917029747268318,-0.3988188092668209,0.3988188092668209,0.917029747268318,106.14590756593628,-172.9548707118394)" fill="none" stroke="#00a19d" filter="url(#bbburst-blur-2)"></use>
  <use xlink:href="#bbburst-shape-8" width="29.63214581555424" opacity="0.08087586767002697" transform="matrix(1.6645176820860774,-0.5402600170499314,0.5402600170499314,1.6645176820860774,-200.13109822664302,-462.56151636503563)" fill="none" stroke="#ffa6d5" filter="url(#bbburst-blur-4)"></use>
  <use xlink:href="#bbburst-shape-4" width="23.065529564016888" opacity="0.7213143294018998" transform="matrix(0.7278788541918056,-0.6857057485688917,0.6857057485688917,0.7278788541918056,150.85615397494195,-4.07443325732396)" fill="#00a19d" filter="url(#bbburst-blur-1)"></use>
  <use xlink:href="#bbburst-shape-4" width="26.189443429835134" opacity="0.3042206889911625" transform="matrix(1.247054312751191,0.08576445096107414,-0.08576445096107414,1.247054312751191,317.854828557862,-396.57692800501985)" fill="#00a19d" filter="url(#bbburst-blur-3)"></use>
  <use xlink:href="#bbburst-shape-4" width="38.91252978618422" opacity="0.324400232034197" transform="matrix(1.170289411116137,0.4392296600065222,-0.4392296600065222,1.170289411116137,381.13507773011514,174.22348302273792)" fill="#ffa6d5" filter="url(#bbburst-blur-3)"></use>
  <use xlink:href="#bbburst-shape-10" width="33.12278191006116" opacity="0.4635055323420001" transform="matrix(0.9994528669177941,0.03307516908199016,-0.03307516908199016,0.9994528669177941,548.0159336350823,-188.42882882711748)" fill="none" stroke="#2c2891" filter="url(#bbburst-blur-2)"></use>
  <use xlink:href="#bbburst-shape-1" width="34.49927486055208" opacity="0.1510415730971293" transform="matrix(1.046060764809714,-0.6842929755051677,0.6842929755051677,1.046060764809714,-23.294444225499035,352.08874889535844)" fill="#ffa6d5" filter="url(#bbburst-blur-3)"></use>
  <use xlink:href="#bbburst-shape-6" width="24.686716048351343" opacity="0.1690156523486971" transform="matrix(1.2490694130613342,-0.04822448915866424,0.04822448915866424,1.2490694130613342,301.87260834582565,-467.5579497141217)" fill="#2c2891" filter="url(#bbburst-blur-3)"></use>
  <use xlink:href="#bbburst-shape-10" width="37.533017706403086" opacity="0.49900987425612475" transform="matrix(0.9710165735757823,0.23901216253811736,-0.23901216253811736,0.9710165735757823,678.8656173813258,-94.03632886444848)" fill="none" stroke="#00a19d" filter="url(#bbburst-blur-2)"></use>
  <use xlink:href="#bbburst-shape-4" width="27.71969336999657" opacity="0.19860950819676249" transform="matrix(1.1059887584301755,-0.5824850781145203,0.5824850781145203,1.1059887584301755,149.16262352127356,326.32235814890123)" fill="#ff5c58" filter="url(#bbburst-blur-3)"></use>
  <use xlink:href="#bbburst-shape-1" width="29.474561921195633" opacity="0.2225741184557245" transform="matrix(0.8904982310017737,-0.8772188441789835,0.8772188441789835,0.8904982310017737,-295.6033605167174,-54.65414896799865)" fill="#2c2891" filter="url(#bbburst-blur-3)"></use>
  <use xlink:href="#bbburst-shape-1" width="25.45488611592963" opacity="0.7274976017006596" transform="matrix(0.782138521087831,-0.6231045930103072,0.6231045930103072,0.782138521087831,117.4773017582209,-25.28230554016369)" fill="#ffa6d5" filter="url(#bbburst-blur-1)"></use>
  <use xlink:href="#bbburst-shape-4" width="30.46278907732931" opacity="0.5550161706943486" transform="matrix(0.8301297828127554,0.5575702141320388,-0.5575702141320388,0.8301297828127554,410.12616582145097,59.822819445592756)" fill="#00a19d" filter="url(#bbburst-blur-2)"></use>
  <use xlink:href="#bbburst-shape-6" width="14.129884719192649" opacity="0.9669898725306464" transform="matrix(0.9942388375015202,-0.10718737800518197,0.10718737800518197,0.9942388375015202,348.90469139479023,17.868211749465104)" fill="#ff5c58"></use>
  <use xlink:href="#bbburst-shape-10" width="19.306021679312426" opacity="0.7115416546325899" transform="matrix(0.8274505990375528,0.5615385170693057,-0.5615385170693057,0.8274505990375528,488.6232030860516,85.14984452953922)" fill="none" stroke="#2c2891" filter="url(#bbburst-blur-1)"></use>
  <use xlink:href="#bbburst-shape-6" width="53.787994161105665" opacity="-0.08030799843108727" transform="matrix(1.735786526039453,-0.22258736716149757,0.22258736716149757,1.735786526039453,-85.17889158027411,49.61821529665008)" fill="#00a19d" filter="url(#bbburst-blur-4)"></use>
  <use xlink:href="#bbburst-shape-4" width="20.031412751407313" opacity="0.6940945143311356" transform="matrix(0.9999145331093432,-0.013073885295661511,0.013073885295661511,0.9999145331093432,269.5604860513823,-75.17991040061537)" fill="#ffbd9b" filter="url(#bbburst-blur-1)"></use>
  <use xlink:href="#bbburst-shape-6" width="13.460196407066999" opacity="0.917572240585581" transform="matrix(0.7750763020773355,0.6318676490833528,-0.6318676490833528,0.7750763020773355,615.6465990318014,104.6712735135306)" fill="#ff5c58"></use>
  <use xlink:href="#bbburst-shape-1" width="35.60280967053759" opacity="0.4906398844868394" transform="matrix(0.9999789765383904,-0.006484325811781605,0.006484325811781605,0.9999789765383904,207.5237588764628,151.58314255577164)" fill="#00a19d" filter="url(#bbburst-blur-2)"></use>
  <use xlink:href="#bbburst-shape-10" width="39.99917520338014" opacity="0.3324802912291137" transform="matrix(1.104625688068817,-0.5850658845450589,0.5850658845450589,1.104625688068817,216.62183846168375,261.2943231136378)" fill="none" stroke="#2c2891" filter="url(#bbburst-blur-3)"></use>
  <use xlink:href="#bbburst-shape-4" width="31.03189591824453" opacity="0.4250727159377343" transform="matrix(0.9982808763953468,0.05861136257875578,-0.05861136257875578,0.9982808763953468,665.0471598140285,-29.133526612307435)" fill="#00a19d" filter="url(#bbburst-blur-2)"></use>
  <use xlink:href="#bbburst-shape-4" width="14.172045491058892" opacity="0.8976486170123064" transform="matrix(0.8385083880458359,0.5448886887950362,-0.5448886887950362,0.8385083880458359,612.5179145120134,14.69105182826928)" fill="#ff5c58"></use>
  <use xlink:href="#bbburst-shape-6" width="19.662760088123765" opacity="0.6839739885727198" transform="matrix(0.9783183933214008,-0.2071065457416376,0.2071065457416376,0.9783183933214008,167.84102205123557,-15.91036011169939)" fill="#ff5c58" filter="url(#bbburst-blur-1)"></use>
</svg>